<svg width="48" height="34" viewBox="0 0 48 34" fill="none" xmlns="http://www.w3.org/2000/svg">
<path d="M17.5112 0.000126499C14.3403 0.0160889 11.5527 1.43979 8.84302 2.66847C6.13332 3.89755 3.52138 4.92261 0.645533 4.43016C0.483188 4.40447 0.317334 4.45196 0.193141 4.55942C0.0685592 4.66686 -0.00190431 4.82376 3.9168e-05 4.98845V32.7901C0.00510028 33.0607 0.203656 33.2885 0.471118 33.3309C4.79291 34.071 8.41007 31.783 12.0174 30.2611C15.6248 28.7392 19.1322 27.8695 23.6862 31.0285C23.8754 31.1573 24.1246 31.1573 24.3138 31.0285C28.8676 27.8696 32.375 28.7392 35.9826 30.2611C39.5896 31.783 43.2068 34.071 47.5289 33.3309C47.7963 33.2885 47.9949 33.0607 48 32.7901V4.98845C48.0019 4.82377 47.9314 4.66686 47.8069 4.55942C47.6827 4.45197 47.5168 4.40447 47.3545 4.43016C44.4786 4.92265 41.8667 3.89757 39.157 2.66847C36.4473 1.43979 33.6598 0.016073 30.4888 0.000126499C28.4683 -0.00999553 26.3098 0.586438 24.0003 2.11064C21.6909 0.586458 19.5325 -0.00993972 17.5119 0.000126499H17.5112ZM17.5112 1.11628C19.3324 1.10733 21.2658 1.61967 23.4413 3.06992V29.5989C18.9544 26.9079 15.0737 27.759 11.5811 29.2325C8.01769 30.7361 4.75524 32.6469 1.11625 32.2323V5.56477C4.08908 5.86922 6.7629 4.8383 9.31374 3.68129C12.0526 2.43896 14.6762 1.13165 17.5112 1.1172V1.11628ZM30.4877 1.11628C33.3227 1.13069 35.9464 2.43804 38.6852 3.68038C41.236 4.83739 43.9098 5.86833 46.8827 5.56386V32.2314C43.2437 32.646 39.9812 30.7352 36.4178 29.2316C32.9252 27.7581 29.0445 26.907 24.5576 29.598V3.06901C26.7331 1.61877 28.6665 1.10649 30.4877 1.11536V1.11628Z" fill="#A4834E"/>
</svg>
