<svg width="48" height="41" viewBox="0 0 48 41" fill="none" xmlns="http://www.w3.org/2000/svg">
<path d="M14.4942 0.0023831C14.2996 0.0421009 14.1399 0.184693 14.0757 0.376134L12.1396 5.73217H0.558292C0.540773 5.73138 0.523254 5.73138 0.505735 5.73217C0.218415 5.75998 -0.00116148 6.00702 4.62289e-06 6.30174V20.6791C4.62289e-06 20.9937 0.249949 21.2487 0.558298 21.2487H2.0233V40.4304C2.0233 40.745 2.27325 41 2.5816 41H45.4184C45.7268 41 45.9767 40.745 45.9767 40.4304V21.2487H47.4417C47.7501 21.2487 48 20.9937 48 20.6791V6.30174C48 5.98716 47.7501 5.73217 47.4417 5.73217H35.8604L33.9243 0.376134C33.8441 0.152125 33.635 0.00277965 33.401 0.0023831H14.5989C14.5638 -0.000794367 14.5289 -0.000794367 14.4942 0.0023831ZM14.9824 1.14149H33.0172L34.6741 5.73209H13.3255L14.9824 1.14149ZM1.11679 6.8709H46.8838V20.1095H38.0929V17.4229C38.0995 17.1513 37.9169 16.9126 37.6568 16.8534C37.6164 16.849 37.5755 16.849 37.535 16.8534H33.5059C33.1975 16.8534 32.9476 17.1084 32.9476 17.4229V20.1095H15.0524V17.4229C15.0524 17.1084 14.8024 16.8534 14.4941 16.8534H10.4649C10.4245 16.849 10.3836 16.849 10.3431 16.8534C10.083 16.9125 9.90042 17.1513 9.90704 17.4229V20.1095H1.11613L1.11679 6.8709ZM11.0239 17.9925H13.9364V23.3128H11.0239V17.9925ZM34.0649 17.9925H36.9774V23.3128H34.0649V17.9925ZM3.14022 21.249H9.9078V23.8823C9.9078 24.1969 10.1574 24.4519 10.4657 24.4519H14.4948C14.8032 24.4519 15.0531 24.1969 15.0531 23.8823V21.249H32.9483V23.8823C32.9483 24.1969 33.1983 24.4519 33.5066 24.4519H37.5357C37.8441 24.4519 38.0936 24.1969 38.0936 23.8823V21.249H44.8612V39.8613H3.14068L3.14022 21.249Z" fill="#A4834E"/>
</svg>
