<svg width="48" height="47" viewBox="0 0 48 47" fill="none" xmlns="http://www.w3.org/2000/svg">
<path d="M23.5121 0.760986C10.5943 0.760986 0.111755 11.1118 0.111755 23.865C0.111755 36.6183 10.5953 46.9691 23.5121 46.9691C36.429 46.9691 46.9125 36.6183 46.9125 23.865C46.9125 23.5682 46.6688 23.3276 46.3681 23.3276H43.7664C43.6206 23.3257 43.4802 23.3816 43.3765 23.4824C43.2729 23.5832 43.2144 23.7211 43.2144 23.865C43.2144 24.009 43.2729 24.1469 43.3765 24.2477C43.4802 24.3485 43.6206 24.4044 43.7664 24.4025H45.7729C45.6321 30.0693 43.3415 35.2138 39.6678 39.044L38.1881 37.5999C38.0636 37.465 37.8776 37.4017 37.695 37.432C37.4919 37.4684 37.3272 37.6153 37.2695 37.8109C37.2122 38.0066 37.2714 38.2176 37.4228 38.3555L38.9025 39.8165C35.0306 43.4774 29.8165 45.7593 24.0567 45.8949V43.8126C24.0579 43.6578 23.9911 43.5098 23.8738 43.4071C23.7565 43.304 23.6001 43.256 23.4444 43.2755C23.1707 43.3096 22.9661 43.5405 22.968 43.8126V45.8949C17.2023 45.7593 11.988 43.4629 8.10474 39.7997L9.60147 38.3556C9.77228 38.1959 9.82012 37.946 9.71952 37.7357C9.61854 37.5254 9.39268 37.4033 9.15923 37.4321C9.03738 37.4452 8.9235 37.4984 8.83619 37.5835L7.32236 39.0272C3.64633 35.1994 1.35391 30.0656 1.21728 24.403H3.29221C3.43798 24.4049 3.57805 24.349 3.68206 24.2482C3.78569 24.1474 3.84415 24.0094 3.84415 23.8655C3.84415 23.7216 3.78569 23.5837 3.68206 23.4829C3.57805 23.382 3.43798 23.3262 3.29221 23.3281H1.21728C1.35621 17.6511 3.66265 12.5168 7.35657 8.68655L8.83629 10.1306C8.93992 10.2307 9.07961 10.2862 9.225 10.2847C9.37001 10.2832 9.50856 10.2247 9.60991 10.122C9.71165 10.0197 9.76782 9.88179 9.76593 9.73825C9.76441 9.59507 9.70519 9.45827 9.60156 9.35821L8.13894 7.91411C12.0185 4.26965 17.2193 1.98784 22.9682 1.85256V3.90122C22.9663 4.04514 23.0229 4.18344 23.125 4.28613C23.2271 4.38845 23.3668 4.44617 23.5126 4.44617C23.6584 4.44617 23.798 4.38845 23.9002 4.28613C24.0023 4.18344 24.0588 4.04514 24.0569 3.90122V1.85256C32.7718 2.07856 40.7209 7.65889 44.2261 15.0165L37.322 13.4719C37.1751 13.4206 37.0134 13.4337 36.8775 13.5079C36.7412 13.5821 36.6436 13.7103 36.6095 13.8602C36.5753 14.0098 36.6076 14.1668 36.6979 14.2916C36.7886 14.4164 36.9291 14.497 37.0836 14.5127L45.2298 16.3263C45.5206 16.3889 45.8083 16.2094 45.8759 15.9234L47.7294 7.86388C47.7644 7.71321 47.7321 7.55543 47.641 7.43025C47.5499 7.30507 47.4087 7.22412 47.2534 7.20875C46.9752 7.17689 46.7174 7.35829 46.6582 7.62851L45.1276 14.3617C41.3188 6.56859 32.824 0.761197 23.5124 0.761197L23.5121 0.760986ZM23.4442 9.84487C23.1636 9.87973 22.9568 10.1203 22.9678 10.3988V20.7246C21.4501 20.984 20.281 22.295 20.281 23.8647C20.281 25.6191 21.7353 27.0549 23.5122 27.0549C24.2034 27.0549 24.8388 26.8192 25.3657 26.4504L30.8077 31.8234C30.9048 31.9422 31.048 32.0146 31.2025 32.0228C31.3566 32.0311 31.5073 31.9741 31.6162 31.8662C31.7255 31.7586 31.7832 31.6098 31.7749 31.4576C31.7665 31.3051 31.6933 31.1638 31.5729 31.0678L26.1481 25.6948C26.5216 25.1746 26.7433 24.5472 26.7433 23.8647C26.7433 22.2951 25.5742 20.9841 24.0565 20.7247V10.3988C24.0626 10.241 23.9981 10.0885 23.8804 9.98168C23.7624 9.87524 23.6028 9.82501 23.4442 9.84487ZM23.5121 21.749C24.7006 21.749 25.655 22.6913 25.655 23.8648C25.655 25.0386 24.7007 25.9805 23.5121 25.9805C22.3236 25.9805 21.3693 25.0386 21.3693 23.8648C21.3693 22.6913 22.3236 21.749 23.5121 21.749Z" fill="#A4834E"/>
</svg>
