<svg width="30" height="48" viewBox="0 0 30 48" fill="none" xmlns="http://www.w3.org/2000/svg">
<path d="M16.0548 0.142824C14.5554 0.423857 12.9381 1.63483 11.2072 3.22957C9.4762 4.82431 7.67131 6.8277 6.02784 8.80977C2.7415 12.7738 0.0988819 16.6218 0.0988819 16.6218C-0.0108886 16.7811 -0.0307394 16.9854 0.0467217 17.1625L8.46913 35.5772L4.89432 40.3201C4.81881 40.4147 4.77599 40.5307 4.77248 40.6518V47.5745C4.77209 47.7255 4.83359 47.8703 4.9418 47.9754C5.0504 48.0805 5.19676 48.1373 5.34778 48.1327C12.5087 47.9797 19.6749 48.0626 26.8485 48.1327C27.1568 48.1327 27.4067 47.8828 27.4067 47.5745V40.6518C27.4078 40.5326 27.3712 40.4166 27.302 40.3201L23.5181 35.3156C23.4118 35.1716 23.2433 35.0875 23.0646 35.0887C18.5358 35.089 14.0088 35.089 9.48081 35.0887L1.19771 16.9879C1.46473 16.6025 3.81303 13.2266 6.88223 9.52457C8.50657 7.56552 10.2866 5.58774 11.9568 4.0487C13.3374 2.77662 14.5971 1.95573 15.6013 1.55525V5.7404C15.6013 5.99497 15.7733 6.21723 16.0201 6.28106C18.2824 6.82095 21.0141 8.17594 23.2916 9.76868C25.4632 11.2871 27.1467 13.0419 27.7734 14.3201L25.0008 18.3656L17.6243 19.2725C17.4192 19.2908 17.2409 19.4212 17.1607 19.6108C17.0806 19.8007 17.1113 20.0191 17.2409 20.1791L23.9195 28.8285L22.4197 31.8105C22.3454 31.9428 22.3283 32.1001 22.3723 32.2457C22.4166 32.3908 22.5178 32.5123 22.6533 32.5812C22.7888 32.6501 22.9464 32.6606 23.09 32.6108C23.2337 32.5606 23.3504 32.4543 23.4139 32.3161L25.0705 29.0204C25.1686 28.8293 25.1483 28.5985 25.0179 28.4276L18.7231 20.2664L25.4017 19.447C25.5585 19.4236 25.6979 19.3349 25.7855 19.2029L28.9068 14.6165C29.0162 14.4651 29.0423 14.2685 28.9765 14.0934C28.2572 12.3729 26.3093 10.5213 23.937 8.86194C21.6976 7.296 19.0847 6.0002 16.7177 5.35678V0.701001C16.7204 0.532848 16.6476 0.372477 16.5192 0.264271C16.3903 0.156065 16.2198 0.111296 16.0548 0.142824ZM9.3936 36.2049H22.803L26.2906 40.8431V47.0165C19.4953 46.9495 12.6949 46.883 5.88804 47.0165V41.4884H21.0771C21.2262 41.4903 21.3702 41.4327 21.4765 41.3276C21.5832 41.2229 21.6431 41.0797 21.6431 40.9302C21.6431 40.7811 21.5832 40.6379 21.4765 40.5328C21.3702 40.4281 21.2262 40.3701 21.0771 40.3724H6.25473L9.3936 36.2049Z" fill="#A4834E"/>
</svg>
