<svg width="36" height="23" viewBox="0 0 36 23" fill="none" xmlns="http://www.w3.org/2000/svg">
<path d="M8.46874 18C8.32178 18 8.10133 18 7.80741 18C7.51348 17.9878 7.19506 17.9816 6.85215 17.9816C6.50924 17.9694 6.1602 17.9633 5.80504 17.9633C5.46212 17.9633 5.16207 17.9633 4.90489 17.9633C4.31704 17.9633 3.7598 17.9633 3.23319 17.9633C2.71882 17.9633 2.23506 17.9755 1.78193 18C1.79417 17.6816 1.80642 17.2652 1.81867 16.7508C1.84316 16.2242 1.85541 15.6608 1.85541 15.0607C1.86765 14.4484 1.87378 13.8238 1.87378 13.187C1.88602 12.5379 1.89215 11.9255 1.89215 11.3499C1.89215 10.8723 1.89215 10.3457 1.89215 9.77007C1.89215 9.19447 1.88602 8.63111 1.87378 8.08C1.86153 7.52889 1.84928 7.02064 1.83704 6.55526C1.82479 6.08988 1.81254 5.71635 1.8003 5.43467C1.86153 5.44691 1.94726 5.45916 2.05748 5.47141C2.1677 5.48365 2.2718 5.48978 2.36978 5.48978C2.56573 5.48978 2.7678 5.47141 2.976 5.43467C2.96375 5.69185 2.95151 6.04089 2.93926 6.48178C2.92701 6.91042 2.91477 7.39417 2.90252 7.93304C2.89027 8.4719 2.87802 9.04138 2.86578 9.64148C2.86578 10.2416 2.86578 10.8294 2.86578 11.405C2.86578 11.9684 2.86578 12.5685 2.86578 13.2053C2.87802 13.8422 2.88415 14.4423 2.88415 15.0056C2.8964 15.569 2.90252 16.065 2.90252 16.4936C2.91477 16.91 2.92089 17.1917 2.92089 17.3387C3.34953 17.3509 3.79654 17.357 4.26193 17.357C4.73956 17.357 5.21719 17.357 5.69482 17.357C6.18469 17.3448 6.66232 17.3264 7.1277 17.3019C7.59309 17.2652 8.0401 17.2284 8.46874 17.1917C8.40751 17.4734 8.40751 17.7428 8.46874 18Z" fill="white"/>
<path d="M35.2874 18.0184C35.0302 17.9816 34.7792 17.9633 34.5342 17.9633C34.4118 17.9633 34.2893 17.9694 34.1668 17.9816C34.0566 17.9939 33.9464 18.0061 33.8361 18.0184C33.5667 17.651 33.2177 17.1917 32.789 16.6406C32.3726 16.0772 31.9318 15.5016 31.4664 14.9138C31.001 14.3259 30.5417 13.7564 30.0886 13.2053C29.6477 12.6542 29.2742 12.2011 28.968 11.8459H27.9025C27.9025 12.2256 27.9025 12.6971 27.9025 13.2604C27.9025 13.8238 27.9025 14.3994 27.9025 14.9873C27.9148 15.5751 27.9209 16.1446 27.9209 16.6957C27.9331 17.2346 27.9454 17.6755 27.9576 18.0184C27.8597 18.0061 27.7617 18 27.6637 18C27.578 17.9878 27.4861 17.9816 27.3881 17.9816C27.2902 17.9816 27.1922 17.9878 27.0942 18C26.9962 18 26.9044 18.0061 26.8187 18.0184C26.8309 17.6755 26.8432 17.2284 26.8554 16.6773C26.8677 16.1262 26.8799 15.5445 26.8921 14.9321C26.9044 14.3198 26.9105 13.7075 26.9105 13.0951C26.9228 12.4828 26.9289 11.9439 26.9289 11.4785C26.9289 10.8784 26.9228 10.2844 26.9105 9.69659C26.9105 9.09649 26.9044 8.53313 26.8921 8.00652C26.8799 7.46765 26.8677 6.97778 26.8554 6.53689C26.8554 6.096 26.8493 5.73472 26.837 5.45304C27.2902 5.47753 27.7923 5.48365 28.3434 5.47141C28.9068 5.45916 29.5191 5.45304 30.1804 5.45304C31.4419 5.45304 32.4094 5.69185 33.083 6.16948C33.7688 6.64711 34.1117 7.3758 34.1117 8.35555C34.1117 8.89442 34.0015 9.3598 33.781 9.7517C33.5728 10.1436 33.285 10.4743 32.9176 10.7437C32.5625 11.0131 32.1522 11.2336 31.6868 11.405C31.2214 11.5642 30.7438 11.6806 30.2539 11.7541C30.5479 12.1337 30.9091 12.5991 31.3378 13.1502C31.7664 13.6891 32.2134 14.2524 32.6788 14.8403C33.1564 15.4281 33.6218 16.0038 34.075 16.5671C34.5281 17.1182 34.9322 17.602 35.2874 18.0184ZM33.0462 8.48415C33.0462 7.6636 32.7707 7.03901 32.2196 6.61037C31.6684 6.18173 30.8969 5.96741 29.9049 5.96741C29.7702 5.96741 29.6171 5.96741 29.4456 5.96741C29.2742 5.96741 29.0966 5.97353 28.9129 5.98578C28.7292 5.98578 28.5516 5.9919 28.3801 6.00415C28.2087 6.00415 28.0617 6.00415 27.9393 6.00415C27.9393 6.05313 27.9393 6.21234 27.9393 6.48178C27.9393 6.73896 27.9331 7.05126 27.9209 7.41867C27.9209 7.77383 27.9148 8.16573 27.9025 8.59437C27.9025 9.01076 27.8964 9.40879 27.8841 9.78844C27.8841 10.1559 27.8841 10.4804 27.8841 10.7621C27.8841 11.0438 27.8841 11.2213 27.8841 11.2948C28.0189 11.3071 28.2209 11.3193 28.4904 11.3316C28.7598 11.3316 28.9925 11.3316 29.1884 11.3316C29.6416 11.3316 30.0947 11.2826 30.5479 11.1846C31.0132 11.0744 31.4296 10.909 31.797 10.6886C32.1644 10.4559 32.4645 10.162 32.6972 9.80681C32.9299 9.43941 33.0462 8.99852 33.0462 8.48415Z" fill="white"/>
<line x1="17.4" y1="4.20996" x2="17.4" y2="19.5186" stroke="white" stroke-width="0.8"/>
</svg>
