<svg width="18" height="16" viewBox="0 0 18 16" fill="none" xmlns="http://www.w3.org/2000/svg">
<path d="M0.375011 8.00003C0.375011 8.09948 0.41452 8.19486 0.484846 8.26519C0.555172 8.33552 0.650557 8.37503 0.750011 8.37503H16.3444L10.2347 14.4847C10.1643 14.5551 10.1248 14.6505 10.1248 14.75C10.1248 14.8495 10.1643 14.945 10.2347 15.0153C10.3051 15.0857 10.4005 15.1252 10.5 15.1252C10.5995 15.1252 10.695 15.0857 10.7653 15.0153L17.5153 8.26534C17.5502 8.23051 17.5778 8.18915 17.5967 8.14363C17.6156 8.0981 17.6253 8.04931 17.6253 8.00003C17.6253 7.95075 17.6156 7.90195 17.5967 7.85642C17.5778 7.8109 17.5502 7.76954 17.5153 7.73471L10.7653 0.984713C10.7305 0.949871 10.6891 0.922234 10.6436 0.903378C10.5981 0.884522 10.5493 0.874817 10.5 0.874817C10.4507 0.874817 10.4019 0.884522 10.3564 0.903378C10.3109 0.922234 10.2695 0.949871 10.2347 0.984713C10.1999 1.01955 10.1722 1.06092 10.1534 1.10644C10.1345 1.15196 10.1248 1.20075 10.1248 1.25003C10.1248 1.2993 10.1345 1.34809 10.1534 1.39361C10.1722 1.43913 10.1999 1.4805 10.2347 1.51534L16.3444 7.62503H0.750011C0.650557 7.62503 0.555172 7.66453 0.484846 7.73486C0.41452 7.80519 0.375011 7.90057 0.375011 8.00003Z" fill="white"/>
</svg>
