<svg width="34" height="42" viewBox="0 0 34 42" fill="none" xmlns="http://www.w3.org/2000/svg">
<path d="M17 0C12.6255 0.00496262 8.43149 1.74494 5.33822 4.83822C2.24494 7.93149 0.504963 12.1255 0.5 16.5C0.5 30.6188 15.5 41.2819 16.1394 41.7281C16.3916 41.9048 16.6921 41.9996 17 41.9996C17.3079 41.9996 17.6084 41.9048 17.8606 41.7281C18.5 41.2819 33.5 30.6188 33.5 16.5C33.495 12.1255 31.7551 7.93149 28.6618 4.83822C25.5685 1.74494 21.3745 0.00496262 17 0ZM17 10.5C18.1867 10.5 19.3467 10.8519 20.3334 11.5112C21.3201 12.1705 22.0892 13.1075 22.5433 14.2039C22.9974 15.3003 23.1162 16.5067 22.8847 17.6705C22.6532 18.8344 22.0818 19.9035 21.2426 20.7426C20.4035 21.5818 19.3344 22.1532 18.1705 22.3847C17.0067 22.6162 15.8003 22.4974 14.7039 22.0433C13.6075 21.5892 12.6705 20.8201 12.0112 19.8334C11.3519 18.8467 11 17.6867 11 16.5C11 14.9087 11.6321 13.3826 12.7574 12.2574C13.8826 11.1321 15.4087 10.5 17 10.5Z" fill="#E3C37A"/>
</svg>
