<svg width="18" height="16" viewBox="0 0 18 16" fill="none" xmlns="http://www.w3.org/2000/svg">
<path d="M17.625 7.99996C17.625 8.09942 17.5855 8.1948 17.5152 8.26513C17.4448 8.33546 17.3494 8.37496 17.25 8.37496H1.65561L7.7653 14.4847C7.83567 14.555 7.8752 14.6505 7.8752 14.75C7.8752 14.8495 7.83567 14.9449 7.7653 15.0153C7.69494 15.0856 7.5995 15.1252 7.49999 15.1252C7.40048 15.1252 7.30504 15.0856 7.23468 15.0153L0.484677 8.26528C0.449811 8.23045 0.422152 8.18909 0.40328 8.14357C0.384408 8.09804 0.374695 8.04925 0.374695 7.99996C0.374695 7.95068 0.384408 7.90189 0.40328 7.85636C0.422152 7.81084 0.449811 7.76948 0.484677 7.73465L7.23468 0.984652C7.26952 0.94981 7.31088 0.922173 7.3564 0.903317C7.40193 0.884461 7.45072 0.874756 7.49999 0.874756C7.54926 0.874756 7.59805 0.884461 7.64358 0.903317C7.6891 0.922173 7.73046 0.94981 7.7653 0.984652C7.80014 1.01949 7.82778 1.06086 7.84664 1.10638C7.86549 1.1519 7.8752 1.20069 7.8752 1.24996C7.8752 1.29924 7.86549 1.34803 7.84664 1.39355C7.82778 1.43907 7.80014 1.48044 7.7653 1.51528L1.65561 7.62496H17.25C17.3494 7.62496 17.4448 7.66447 17.5152 7.7348C17.5855 7.80513 17.625 7.90051 17.625 7.99996Z" fill="white"/>
</svg>
