<svg width="44" height="43" viewBox="0 0 44 43" fill="none" xmlns="http://www.w3.org/2000/svg">
<path d="M41.375 0.625L43.3125 2.75C41.8958 4 40.5208 5.33333 39.1875 6.75C37.8958 8.16667 36.6875 9.60417 35.5625 11.0625C34.4792 12.4792 33.5 13.8958 32.625 15.3125C31.75 16.7292 31.0208 18.0833 30.4375 19.375C29.6042 21.25 29.1875 23.2708 29.1875 25.4375C29.1875 27.4792 30.9375 28.5 34.4375 28.5C36.3125 28.5 37.9375 29 39.3125 30C40.6875 30.9583 41.375 32.5417 41.375 34.75C41.375 35.875 41.1875 36.8958 40.8125 37.8125C40.4375 38.7292 39.9167 39.5208 39.25 40.1875C38.5833 40.8125 37.8125 41.3125 36.9375 41.6875C36.1042 42.0625 35.1875 42.25 34.1875 42.25C30.6875 42.25 28.1667 41.1667 26.625 39C25 36.7917 24.1875 34.1458 24.1875 31.0625C24.1875 26.6042 25.7083 21.6667 28.75 16.25C30.2917 13.5 32.0833 10.8333 34.125 8.25C36.2083 5.66667 38.625 3.125 41.375 0.625ZM18.125 0.625L20.0625 2.75C18.6458 4 17.2708 5.33333 15.9375 6.75C14.6458 8.16667 13.4375 9.60417 12.3125 11.0625C11.2292 12.4792 10.25 13.8958 9.375 15.3125C8.5 16.7292 7.77083 18.0833 7.1875 19.375C6.35417 21.25 5.9375 23.2708 5.9375 25.4375C5.9375 27.4792 7.6875 28.5 11.1875 28.5C13.0625 28.5 14.6875 29 16.0625 30C17.4375 30.9583 18.125 32.5417 18.125 34.75C18.125 35.875 17.9375 36.8958 17.5625 37.8125C17.1875 38.7292 16.6667 39.5208 16 40.1875C15.3333 40.8125 14.5625 41.3125 13.6875 41.6875C12.8542 42.0625 11.9375 42.25 10.9375 42.25C7.4375 42.25 4.91667 41.1667 3.375 39C1.75 36.7917 0.9375 34.1458 0.9375 31.0625C0.9375 26.6042 2.45833 21.6667 5.5 16.25C7.04167 13.5 8.83333 10.8333 10.875 8.25C12.9583 5.66667 15.375 3.125 18.125 0.625Z" fill="#D9D9D9"/>
</svg>
