<svg width="44" height="43" viewBox="0 0 44 43" fill="none" xmlns="http://www.w3.org/2000/svg">
<path d="M2.625 42.375L0.6875 40.25C2.10417 39 3.47917 37.6667 4.8125 36.25C6.10417 34.8333 7.3125 33.3958 8.4375 31.9375C9.52083 30.5208 10.5 29.1042 11.375 27.6875C12.25 26.2708 12.9792 24.9167 13.5625 23.625C14.3958 21.75 14.8125 19.7292 14.8125 17.5625C14.8125 15.5208 13.0625 14.5 9.5625 14.5C7.6875 14.5 6.0625 14 4.6875 13C3.3125 12.0417 2.625 10.4583 2.625 8.25C2.625 7.125 2.8125 6.10417 3.1875 5.1875C3.5625 4.27083 4.08333 3.47917 4.75 2.8125C5.41667 2.1875 6.1875 1.6875 7.0625 1.3125C7.89583 0.9375 8.8125 0.75 9.8125 0.75C13.3125 0.75 15.8333 1.83333 17.375 4C19 6.20833 19.8125 8.85417 19.8125 11.9375C19.8125 16.3958 18.2917 21.3333 15.25 26.75C13.7083 29.5 11.9167 32.1667 9.875 34.75C7.79167 37.3333 5.375 39.875 2.625 42.375ZM25.875 42.375L23.9375 40.25C25.3542 39 26.7292 37.6667 28.0625 36.25C29.3542 34.8333 30.5625 33.3958 31.6875 31.9375C32.7708 30.5208 33.75 29.1042 34.625 27.6875C35.5 26.2708 36.2292 24.9167 36.8125 23.625C37.6458 21.75 38.0625 19.7292 38.0625 17.5625C38.0625 15.5208 36.3125 14.5 32.8125 14.5C30.9375 14.5 29.3125 14 27.9375 13C26.5625 12.0417 25.875 10.4583 25.875 8.25C25.875 7.125 26.0625 6.10417 26.4375 5.1875C26.8125 4.27083 27.3333 3.47917 28 2.8125C28.6667 2.1875 29.4375 1.6875 30.3125 1.3125C31.1458 0.9375 32.0625 0.75 33.0625 0.75C36.5625 0.75 39.0833 1.83333 40.625 4C42.25 6.20833 43.0625 8.85417 43.0625 11.9375C43.0625 16.3958 41.5417 21.3333 38.5 26.75C36.9583 29.5 35.1667 32.1667 33.125 34.75C31.0417 37.3333 28.625 39.875 25.875 42.375Z" fill="#D9D9D9"/>
</svg>
